<svg xmlns="http://www.w3.org/2000/svg" width="48" height="48" style=""><rect id="backgroundrect" width="100%" height="100%" x="0" y="0" fill="none" stroke="none"/>

 <g style="">
  <title>background</title>
  <rect fill="none" id="canvas_background" height="402" width="582" y="-1" x="-1"/>
 </g>
 <g style="" class="currentLayer">
  <title>Layer 1</title>
  <path id="svg_1" fill="none" d="m0,0l48,0l0,48l-48,0l0,-48z" class=""/>
  <path id="svg_2" d="m6,26l16,0l0,-20l-16,0l0,20zm0,16l16,0l0,-12l-16,0l0,12zm20,0l16,0l0,-20l-16,0l0,20zm0,-36l0,12l16,0l0,-12l-16,0z" class="" fill="#5182ac" fill-opacity="1"/>
  <rect id="svg_10" height="24.115995407104492" width="18.44662094116211" y="4.157189846038818" x="4.834129810333252" fill-opacity="0" stroke-opacity="null" stroke-width="null" stroke="null" fill="#000000"/>
  <rect stroke="null" id="svg_11" height="18.362003326416016" width="13.284952163696289" y="6.949567794799805" x="6.949567794799805" stroke-opacity="null" stroke-width="null" fill="#000000"/>
  <rect id="svg_19" height="18.192768096923828" width="13.961892127990723" y="6.864951133728027" x="6.949567794799805" stroke-opacity="null" stroke-width="null" stroke="null" fill="#ffffff"/>
  <rect id="svg_21" height="10.83104419708252" width="14.638832092285156" y="6.523495711386204" x="26.583818398416042" stroke-opacity="null" stroke-width="null" stroke="null" fill="#ffffff" class=""/><rect height="10.83104419708252" width="14.638832092285156" y="6.523495711386204" x="26.583818398416042" stroke-opacity="null" stroke-width="null" stroke="null" fill="#074d80" class="" id="svg_4" fill-opacity="1"/>
  <rect id="svg_22" height="18.44662094116211" width="14.384980201721191" y="22.603811264038086" x="26.834686279296875" stroke-opacity="null" stroke-width="null" stroke="null" fill="#ffffff" class=""/><rect height="18.44662094116211" width="14.384980201721191" y="22.603811264038086" x="26.834686279296875" stroke-opacity="null" stroke-width="null" stroke="null" fill="#074d80" class="" id="svg_5" fill-opacity="1"/>
  <rect id="svg_23" height="10.74642562866211" width="14.469596862792969" y="30.557857513427734" x="6.780333042144775" stroke-opacity="null" stroke-width="null" stroke="null" fill="#ffffff" class=""/><rect height="10.74642562866211" width="14.469596862792969" y="30.557857513427734" x="6.780333042144775" stroke-opacity="null" stroke-width="null" stroke="null" fill="#074d80" class="" id="svg_6" fill-opacity="1"/>
  <rect id="svg_24" height="18.785091400146484" width="14.808067321777344" y="6.5264811515808105" x="6.5264811515808105" stroke-opacity="null" stroke-width="null" stroke="null" fill="#ffffff" class=""/><rect height="18.785091400146484" width="14.808067321777344" y="6.5264811515808105" x="6.5264811515808105" stroke-opacity="null" stroke-width="null" stroke="null" fill="#074d80" class="" id="svg_3" fill-opacity="1"/>
 </g>
</svg>