<svg xmlns="http://www.w3.org/2000/svg" xmlns:xlink="http://www.w3.org/1999/xlink" enable-background="new 0 0 24 24" height="24" version="1.1" width="24" xml:space="preserve"><rect id="backgroundrect" width="100%" height="100%" x="0" y="0" fill="none" stroke="none"/><g class="currentLayer" style=""><title>Layer 1</title><g id="svg_1" class="" fill-opacity="1" fill="#e5ecf1"><path d="M12,9c0-1.7-1.3-3-3-3S6,7.3,6,9s1.3,3,3,3S12,10.7,12,9z M9,11c-1.1,0-2-0.9-2-2s0.9-2,2-2s2,0.9,2,2S10.1,11,9,11z" id="svg_2" fill="#e5ecf1"/><path d="M23,15h-1.2l0.8-0.8c0.4-0.4,0.4-1,0-1.4l-1.4-1.4c-0.4-0.4-1-0.4-1.4,0L19,12.2V11c0-0.6-0.4-1-1-1V7c0-0.6-0.4-1-1-1   h-0.7l0.6-0.6c0.4-0.4,0.4-1,0-1.4L14,1.2c-0.4-0.4-1-0.4-1.4,0L12,1.8V1c0-0.6-0.4-1-1-1H7C6.4,0,6,0.4,6,1v0.7L5.5,1.2   c-0.4-0.4-1-0.4-1.4,0L1.3,4c-0.4,0.4-0.4,1,0,1.4L1.8,6H1C0.4,6,0,6.4,0,7v4c0,0.6,0.4,1,1,1h0.8l-0.5,0.5c-0.4,0.4-0.4,1,0,1.4   l2.8,2.8c0.4,0.4,1,0.4,1.4,0L6,16.3V17c0,0.6,0.4,1,1,1h3c0,0.6,0.4,1,1,1h1.2l-0.8,0.8c-0.4,0.4-0.4,1,0,1.4l1.4,1.4   c0.4,0.4,1,0.4,1.4,0l0.8-0.8V23c0,0.6,0.4,1,1,1h2c0.6,0,1-0.4,1-1v-1.2l0.8,0.8c0.4,0.4,1,0.4,1.4,0l1.4-1.4c0.4-0.4,0.4-1,0-1.4   L21.8,19H23c0.6,0,1-0.4,1-1v-2C24,15.4,23.6,15,23,15z M8,16v-1.1c-0.9-0.2-1.7-0.5-2.5-1l-0.7,0.7l-1.4-1.4l0.7-0.7   c-0.5-0.7-0.9-1.6-1-2.5H2V8h1.1c0.2-0.9,0.5-1.8,1.1-2.5L3.4,4.7l1.4-1.4l0.8,0.8c0.7-0.5,1.5-0.8,2.4-1V2h2v1.1   c0.9,0.2,1.8,0.5,2.5,1l0.8-0.8l1.4,1.4l-0.8,0.8c0.5,0.7,0.9,1.5,1,2.5H16v2h-1.1c-0.1,0.9-0.5,1.7-1,2.4l0.8,0.8l-1.4,1.4   l-0.8-0.8c-0.7,0.5-1.6,0.9-2.5,1.1V16H8z M23,18h-1.1c-0.1,0.6-0.4,1.2-0.7,1.8l0.8,0.8L20.5,22l-0.8-0.8   c-0.5,0.3-1.1,0.6-1.8,0.7V23h-2v-1.1c-0.6-0.1-1.2-0.4-1.8-0.7l-0.8,0.8L12,20.5l0.8-0.8c-0.3-0.5-0.6-1.1-0.7-1.8H11   c0.6,0,1-0.4,1-1v-0.8l0.6,0.6c0.4,0.4,1,0.4,1.4,0l0,0c0,0.1,0,0.2,0,0.3c0,1.7,1.3,3,3,3s3-1.3,3-3s-1.3-3-3-3   c-0.1,0-0.2,0-0.3,0l-2.4,2.4l2.5-2.5c0.4-0.4,0.4-1,0-1.4L16.3,12H17c0.6,0,1-0.4,1-1v1.1c0.6,0.1,1.2,0.4,1.8,0.7l0.8-0.8   l1.4,1.4l-0.8,0.8c0.3,0.5,0.6,1.1,0.7,1.8H23V18z M15,17c0-1.1,0.9-2,2-2s2,0.9,2,2s-0.9,2-2,2S15,18.1,15,17z" id="svg_3" fill="#e5ecf1"/></g></g></svg>