<svg xmlns="http://www.w3.org/2000/svg" xmlns:sketch="http://www.bohemiancoding.com/sketch/ns" xmlns:xlink="http://www.w3.org/1999/xlink" height="16" version="1.1" width="16"><rect id="backgroundrect" width="100%" height="100%" x="0" y="0" fill="none" stroke="none"/><title/><defs/><g class="currentLayer" style=""><title>Layer 1</title><g fill="#074d80" fill-rule="evenodd" id="Icons with numbers" stroke="none" stroke-width="1" class="" fill-opacity="1"><g fill="#074d80" id="Group"><path d="M7,8.73468778 C6.400261999999998,8.38972905 6,7.74300738 6,7.00208688 L6,4.99791312 C6,3.8982606200000003 6.895431000000002,3 8,3 C9.112269999999995,3 10,3.89449617 10,4.99791312 L10,7.00208688 C10,7.73907437 9.597801000000004,8.38560296 9,8.73189155 L9,10 L10.5,10 C11.400555999999995,10 11.895612,10.4055009 11.985167000000004,11.2165026 C11.111058,12.3426679 9.719916999999995,12.999965 8,13 C6.280157000000003,13 4.888964999999999,12.3426978 4.014832999999996,11.2165026 C4.104388,10.4055009 4.599444000000005,10 5.5,10 L7,10 zM8,14 C11.313709000000003,14 14,11.3137087 14,8 C14,4.68629134 11.313709000000003,2 8,2 C4.686290999999997,2 2,4.68629134 2,8 C2,11.3137087 4.686290999999997,14 8,14 zM8,16 C3.581721799999997,16 0,12.4182782 0,8 C0,3.58172178 3.581721799999997,0 8,0 C12.418278,0 16,3.58172178 16,8 C16,12.4182782 12.418278,16 8,16 zM8,16 " id="Oval 255" fill="#074d80"/></g></g></g></svg>